HIERARCHY
ROOT pelvis
{
  OFFSET 0 100 0
  CHANNELS 6 Xposition Yposition Zposition Zrotation Xrotation Yrotation
  JOINT pelvis_right_femur
  {
    OFFSET -10.78128 -3.44521 -0.5502486
    CHANNELS 3 Zrotation Xrotation Yrotation
    JOINT right_femur_tibia
    {
      OFFSET -0.8047443 -44.0398 -0.1307829
      CHANNELS 3 Zrotation Xrotation Yrotation
      JOINT right_tibia_foot
      {
        OFFSET 3.006224 -47.83518 -5
        CHANNELS 3 Zrotation Xrotation Yrotation
        End Site
        {
          OFFSET 0 -5 15
        }
      }
    }
  }
  JOINT pelvis_left_femur
  {
    OFFSET 10.78128 -3.44521 -0.5502486
    CHANNELS 3 Zrotation Xrotation Yrotation
    JOINT left_femur_tibia
    {
      OFFSET 0.8047443 -44.0398 -0.1307829
      CHANNELS 3 Zrotation Xrotation Yrotation
      JOINT left_tibia_foot
      {
        OFFSET -4.370144 -48.10324 -4.275266
        CHANNELS 3 Zrotation Xrotation Yrotation
        End Site
        {
          OFFSET 0 -5 15
        }
      }
    }
  }
  JOINT pelvis_spine1
  {
    OFFSET 0 6.468898 -3.129235
    CHANNELS 3 Zrotation Xrotation Yrotation
    JOINT spine1
    {
      OFFSET 0 23.15396 4.99043
      CHANNELS 3 Zrotation Xrotation Yrotation
      JOINT spine2
      {
        OFFSET 0 20.79997 -5.064912
        CHANNELS 3 Zrotation Xrotation Yrotation
        JOINT neck
        {
          OFFSET 0 14.38658 9.616178
          CHANNELS 3 Zrotation Xrotation Yrotation
          End Site
          {
            OFFSET 0 20 0
          }
        }
      }
      JOINT right_manubrium
      {
        OFFSET -5.722621 16.35077 3.967754
        CHANNELS 3 Zrotation Xrotation Yrotation
        JOINT right_clavicle
        {
          OFFSET -13.16364 1.694482 -4.693211
          CHANNELS 3 Zrotation Xrotation Yrotation
          JOINT right_humerus
          {
            OFFSET -28.5034 -0.3100689 -2.792744
            CHANNELS 3 Zrotation Xrotation Yrotation
            JOINT right_radius
            {
              OFFSET -25.15693 0.02248979 -1.271978
              CHANNELS 3 Zrotation Xrotation Yrotation
              End Site
              {
                OFFSET -15 0 0
              }
            }
          }
        }
      }
      JOINT left_manubrium
      {
        OFFSET 5.722621 16.35077 3.967754
        CHANNELS 3 Zrotation Xrotation Yrotation
        JOINT left_clavicle
        {
          OFFSET 13.16364 1.694482 -4.693211
          CHANNELS 3 Zrotation Xrotation Yrotation
          JOINT left_humerus
          {
            OFFSET 29.39168 -1.063119 -2.237045
            CHANNELS 3 Zrotation Xrotation Yrotation
            JOINT left_radius
            {
              OFFSET 24.59957 -0.9528479 0.9047498
              CHANNELS 3 Zrotation Xrotation Yrotation
              End Site
              {
                OFFSET 15 -0 -0
              }
            }
          }
        }
      }
    }
  }
}
MOTION
Frames: 11
Frame Time: 0.0416666666667
0 103.5113 0 0.7473666 -1.924996 0.8236858 0.9719302 -21.78277 2.672283 -0 35.08735 -0 -4.182524 -4.703709 -3.594102 -6.133945 12.48835 -17.07741 0 -4.921681 0 2.273154 -21.84544 19.70772 -3.537752 -1.383456 2.714863 1.520182 8.694468 -7.344527 1.322613 22.03415 7.397392 3.228408 -21.64816 8.945363 3.921493 -18.03628 10.48035 86.87765 31.07754 -17.93434 -0 0 14.04645 -15.22761 10.22252 8.797276 6.421959 -19.96427 -3.359012 -89.30729 26.78164 16.51108 0 0 -18.72629 3.437878 14.6684 9.584717
0.569031 101.9743 3.753509 0.7759718 -1.859676 1.628601 0.9489041 -21.81347 2.696947 -0 35.17322 -0 -4.180455 -4.79418 -3.570003 -6.144385 12.47757 -17.16835 0 -5.40541 0 2.353563 -21.93015 19.79051 -3.561596 -1.395994 2.716634 1.525075 8.671184 -7.345698 1.317185 22.0237 7.410981 3.231952 -21.68565 8.962784 3.943738 -18.08024 10.47634 86.81988 31.14563 -17.88514 -0 0 14.13352 -15.1763 10.19745 8.801053 6.429494 -19.93932 -3.334783 -89.3707 26.84645 16.6069 0 0 -18.69044 3.402714 14.69314 9.634459
0.9640198 100.0774 7.122141 0.1432904 -0.3430115 2.173073 2.453336 -26.78465 2.546698 -0 25.10693 -0 -6.218854 -7.084947 -3.059481 -5.382174 14.69596 -17.62799 0 -6.094383 0 3.307009 -22.85444 19.57626 -3.077656 -1.809132 2.578292 2.275739 8.789008 -8.233735 1.074834 21.56195 7.357473 3.388117 -23.07358 8.755704 3.768689 -18.59793 10.71301 87.85417 31.56125 -20.30577 -0 0 13.57166 -13.18362 9.891498 7.594079 7.092133 -21.63947 -3.331128 -89.47871 26.63759 16.50408 0 0 -21.39968 5.003685 15.93714 7.646543
1.253254 97.99271 10.38029 -0.1365342 0.1185634 2.618698 3.184848 -28.76449 2.473552 -0 20.56036 -0 -7.057514 -7.796425 -2.955722 -5.025041 15.63861 -17.52838 0 -4.71537 0 3.404181 -22.95981 19.19766 -2.794306 -1.934779 2.521578 2.579218 8.900906 -8.60332 0.9928044 21.40059 7.289604 3.437709 -23.53094 8.613515 3.634111 -18.6587 10.82394 88.46774 31.5212 -21.48108 -0 0 13.05367 -12.50404 9.847671 7.06994 7.341776 -22.42264 -3.391849 -89.31998 26.36951 16.14451 0 0 -22.66946 5.764666 16.34217 6.692479
1.431392 95.86679 13.68712 -0.3712208 0.2653184 2.941796 3.881452 -30.3025 2.340438 -0 16.50795 -0 -7.741913 -7.985657 -2.981166 -4.706756 16.50619 -17.07402 0 -1.517865 0 3.128586 -22.70278 18.52202 -2.46436 -1.981973 2.462711 2.810794 9.083373 -8.906102 0.9491625 21.31367 7.180044 3.461405 -23.7454 8.42699 3.437301 -18.50547 10.92918 89.20851 31.19521 -22.65427 -0 0 12.24307 -12.15356 9.919937 6.613775 7.511345 -23.16642 -3.5395 -88.92003 25.89033 15.42545 0 0 -23.8794 6.52713 16.54528 5.718167
1.516873 93.8101 17.17899 -0.4970284 0.05798608 3.163508 4.382878 -31.01387 2.194417 -0 13.93043 -0 -8.058354 -7.622695 -3.151311 -4.510119 17.08094 -16.34662 -0 2.942958 -0 2.483147 -22.11583 17.68095 -2.163848 -1.923927 2.419223 2.914664 9.280474 -9.065738 0.9601221 21.32442 7.054239 3.4501 -23.64664 8.24352 3.241311 -18.13663 11.00124 89.87954 30.68788 -23.54186 -0 0 11.31283 -12.21435 10.11936 6.328041 7.547919 -23.66999 -3.730553 -88.36542 25.34848 14.48643 0 0 -24.76247 7.035656 16.4686 5.048202
1.520501 91.92052 20.97774 -0.5465588 -0.437153 3.293443 4.772475 -31.09852 2.017988 -0 12.26285 -0 -8.114943 -6.826935 -3.438396 -4.389092 17.42681 -15.34292 -0 8.719752 -0 1.51795 -21.20465 16.66846 -1.860627 -1.780358 2.390288 2.926437 9.50614 -9.12287 1.01425 21.41015 6.903517 3.411643 -23.29849 8.046152 3.028625 -17.5844 11.05619 90.53045 30.00286 -24.25344 -0 0 10.23764 -12.60159 10.43567 6.159416 7.48238 -24.0237 -3.969825 -87.67393 24.70511 13.33582 0 0 -25.44689 7.379779 16.17422 4.568135
1.453924 90.28436 25.18088 -0.5288536 -1.17101 3.340847 5.066422 -30.54407 1.836221 -0 11.39269 -0 -7.916038 -5.729238 -3.83061 -4.325758 17.46742 -14.1037 -0 15.58069 -0 0.2819049 -19.98854 15.54759 -1.558861 -1.558001 2.389001 2.854674 9.744701 -9.078967 1.10782 21.55788 6.730226 3.348465 -22.73278 7.840451 2.813234 -16.88828 11.09671 91.1137 29.19945 -24.75682 -0 0 9.09231 -13.27017 10.85991 6.108798 7.321014 -24.21667 -4.234841 -86.90765 24.00279 12.06286 0 0 -25.9233 7.525255 15.68306 4.324013
1.328303 88.98085 29.86905 -0.4551039 -2.115771 3.310786 5.287249 -29.28851 1.660791 -0 11.16564 -0 -7.479559 -4.437323 -4.314722 -4.288104 17.09156 -12.63936 -0 23.41168 -0 -1.185948 -18.44997 14.36892 -1.254033 -1.262603 2.432422 2.704094 9.993229 -8.931525 1.237887 21.75762 6.529953 3.262088 -21.97066 7.623174 2.594942 -16.09068 11.12839 91.59618 28.30354 -25.01951 -0 0 7.942041 -14.20149 11.38574 6.184999 7.068324 -24.24815 -4.512657 -86.11821 23.25019 10.75002 0 0 -26.17314 7.466863 15.01123 4.323377
1.156108 88.07585 35.09495 -0.339582 -3.22208 3.204087 5.454831 -27.23303 1.516646 -0 11.42138 -0 -6.828471 -3.121375 -4.862803 -4.227667 16.12902 -10.99149 -0 31.90901 -0 -2.819934 -16.59362 13.2191 -0.948484 -0.9047643 2.546304 2.480152 10.2408 -8.67425 1.399233 21.99378 6.300523 3.154454 -21.0485 7.394713 2.379464 -15.26421 11.15618 91.91521 27.3682 -24.97707 -0 0 6.907693 -15.36226 11.99601 6.405003 6.731181 -24.10486 -4.777523 -85.38527 22.48573 9.537538 0 0 -26.14876 7.185987 14.18335 4.593512
0.9528447 87.60684 40.871 -0.2027522 -4.414779 3.015236 5.588957 -24.25474 1.429937 -0 11.93712 -0 -6.017038 -2.01562 -5.41547 -4.071049 14.35374 -9.231639 -0 40.54952 -0 -4.51718 -14.45293 12.21741 -0.6483107 -0.5050716 2.765069 2.191728 10.47463 -8.300855 1.581967 22.2431 6.040706 3.02894 -20.02631 7.155236 2.170963 -14.52433 11.18634 91.98664 26.46151 -24.54044 -0 0 6.168031 -16.7009 12.65669 6.790161 6.323116 -23.77558 -4.995259 -84.81636 21.7637 8.630787 0 0 -25.77702 6.676691 13.2436 5.147398
